<svg height="512" viewBox="0 0 58 54" width="512" xmlns="http://www.w3.org/2000/svg"><g id="038---Giraffe" fill="none"><path id="Shape" d="m58 18.69s-.81 7.31-12.64 7.31c-1.4579449-.0060475-2.9140975-.1029017-4.36-.29v11.62c-2.45-3.19-6.91-3.33-12-3.33s-9.55.14-12 3.33v-11.62c-1.4459025.1870983-2.9020551.2839525-4.36.29-11.83 0-12.64-7.31-12.64-7.31l4.92-2c3.16503549-1.2660441 6.7569833-.8325982 9.53 1.15l2.55 1.85 2-1.69v-11.59c-1.1606195-.51699538-1.9332647-1.64119417-2-2.91 0-1.93 2-3.5 4.5-3.5s4.5 1.57 4.5 3.5c-.0667353 1.26880583-.8393805 2.39300462-2 2.91v9.59s1-1 5-1 5 1 5 1v-9.59c-1.1606195-.51699538-1.9332647-1.64119417-2-2.91 0-1.93 2-3.5 4.5-3.5s4.5 1.57 4.5 3.5c-.0667353 1.26880583-.8393805 2.39300462-2 2.91v11.59l2 1.69 2.55-1.82c2.7730167-1.9825982 6.3649645-2.4160441 9.53-1.15z" fill="#f0c419"/><path id="Shape" d="m41 35.33v2c-2.45-3.19-6.91-3.33-12-3.33s-9.55.14-12 3.33v-2c2.45-3.19 6.91-5.33 12-5.33s9.55 2.14 12 5.33z" fill="#f29c1f"/><path id="Shape" d="m43 43c0 6.08-6.27 11-14 11s-14-4.92-14-11c.0189755-2.0595767.7225874-4.0543164 2-5.67 2.45-3.19 6.91-5.33 12-5.33s9.55 2.14 12 5.33c1.2774126 1.6156836 1.9810245 3.6104233 2 5.67z" fill="#f9eab0"/><path id="Shape" d="m29 51c-2.3894202-.017515-4.7139371-.7795371-6.65-2.18-.2929578-.2054277-.4540676-.5515419-.4226409-.9079646.0314268-.3564228.2506155-.669005.5750001-.82.3243845-.1509951.704683-.1174631.9976408.0879646 3.2509735 2.3582327 7.6433089 2.3823664 10.92.06.4530449-.3140152 1.0747628-.2021954 1.39.25.3140152.4530449.2021954 1.0747628-.25 1.39-1.9178271 1.3620604-4.2077778 2.1021054-6.56 2.12z" fill="#802d40"/><circle id="Oval" cx="25" cy="39" fill="#7f6e5d" r="2"/><circle id="Oval" cx="33" cy="39" fill="#7f6e5d" r="2"/><path id="Shape" d="m13.34 23c-.43 0-.54-.16-1.8-1.06-1.3862048-.9878507-3.17974678-1.2026236-4.76-.57l-.4.16c-.50535675.2083221-1.08434705-.0277278-1.3-.53-.10207399-.2465323-.10138841-.5236343.00190421-.7696585.10329262-.2460243.30062482-.4405647.54809579-.5403415l.37-.19c2.21321588-.8807502 4.7224185-.5755769 6.66.81l1.22.87c.353673.246405.509656.6917083.3870464 1.1049478-.1226095.4132396-.496217.7014116-.9270464.7150522z" fill="#f29c1f"/><path id="Shape" d="m44.66 23c-.4323529-.0027678-.8139619-.283083-.9459003-.694822-.1319385-.411739.0156784-.8616404.3659003-1.115178l1.22-.87c1.9453428-1.403182 4.4736784-1.7126201 6.7-.82l.41.16c.2479005.1070983.4419482.3099049.5380049.5622892s.0859559.5328891-.0280049.7777108c-.207903.5100784-.7891456.7559887-1.3.55l-.4-.16c-1.5802532-.6326236-3.3737952-.4178507-4.76.57-1.24.86-1.37 1.04-1.8 1.04z" fill="#f29c1f"/><path id="Shape" d="m27 24v4c-.8405796-.6952889-1.9103629-1.0518834-3-1-1.0896371-.0518834-2.1594204.3047111-3 1v-4c0-1.6568542 1.3431458-2.9999999 3-2.9999999s3 1.3431457 3 2.9999999z" fill="#35495e"/><path id="Shape" d="m37 24v4c-.8405796-.6952889-1.9103629-1.0518834-3-1-1.0896371-.0518834-2.1594204.3047111-3 1v-4c0-1.6568542 1.3431458-3 3-3s3 1.3431458 3 3z" fill="#35495e"/><ellipse id="Oval" cx="21.5" cy="3.5" fill="#e57e25" rx="4.5" ry="3.5"/><ellipse id="Oval" cx="36.5" cy="3.5" fill="#e57e25" rx="4.5" ry="3.5"/><g fill="#ecf0f1"><circle id="Oval" cx="23" cy="23" r="1"/><circle id="Oval" cx="33" cy="23" r="1"/></g></g></svg>